<svg width="96" height="96" viewBox="0 0 96 96" fill="none" xmlns="http://www.w3.org/2000/svg">
  <rect width="96" height="96" rx="28" fill="#F8FBFF"/>
  <g transform="translate(24 16) scale(2)">
    <path d="M11.04 19.32Q12 21.51 12 24q0-2.49.93-4.68.96-2.19 2.58-3.81t3.81-2.55Q21.51 12 24 12q-2.49 0-4.68-.93a12.3 12.3 0 0 1-3.81-2.58 12.3 12.3 0 0 1-2.58-3.81Q12 2.49 12 0q0 2.49-.96 4.68-.93 2.19-2.55 3.81a12.3 12.3 0 0 1-3.81 2.58Q2.49 12 0 12q2.49 0 4.68.96 2.19.93 3.81 2.55t2.55 3.81" fill="#4F46E5"/>
  </g>
  <path d="M25 72H71" stroke="#CBD5E1" stroke-width="2"/>
  <text x="48" y="67" text-anchor="middle" fill="#334155" font-family="Arial, sans-serif" font-size="10" font-weight="700">AI PRO</text>
</svg>
