<svg width="96" height="96" viewBox="0 0 96 96" fill="none" xmlns="http://www.w3.org/2000/svg">
  <rect width="96" height="96" rx="28" fill="#F4FAFF"/>
  <g transform="translate(18 22) scale(2.5)">
    <path d="M13.762 4.29a6.51 6.51 0 0 0-5.669 3.332 3.571 3.571 0 0 0-1.558-.36 3.571 3.571 0 0 0-3.516 3A4.918 4.918 0 0 0 0 14.796a4.918 4.918 0 0 0 4.92 4.914 4.93 4.93 0 0 0 .617-.045h14.42c2.305-.272 4.041-2.258 4.043-4.589v-.009a4.594 4.594 0 0 0-3.727-4.508 6.51 6.51 0 0 0-6.511-6.27z" fill="#22A8F3"/>
  </g>
  <circle cx="69" cy="66" r="11" fill="white"/>
  <path d="M69 61V71" stroke="#22A8F3" stroke-width="3.2" stroke-linecap="round"/>
  <path d="M64 66H74" stroke="#22A8F3" stroke-width="3.2" stroke-linecap="round"/>
</svg>
